<?xml version="1.0" encoding="utf-8"?>
<!-- Generator: Adobe Illustrator 25.2.1, SVG Export Plug-In . SVG Version: 6.00 Build 0)  -->
<svg width="1407" height="434" viewBox="0 0 1407 434" fill="none" xmlns="http://www.w3.org/2000/svg">
<g clip-path="url(#clip0_7_26)">
<path d="M866.294 1.13128C751.426 3.29099 697.344 5.86208 671.513 10.2844C652.057 13.6782 642.713 17.3806 628.204 27.4592C598.744 47.8223 588.302 73.1218 582.476 136.782C580.717 157.145 579.948 248.779 581.377 278.706C583.905 330.334 588.522 354.605 600.393 376.922C618.311 410.655 642.933 422.687 705.698 428.241C756.482 432.869 858.82 434.411 1047.56 433.691C1301.37 432.56 1330.16 429.886 1362.81 403.764C1391.61 380.727 1400.62 350.594 1406.01 259.68C1408.65 215.56 1404.58 126.909 1398.54 97.1872C1394.69 78.0583 1383.92 52.6559 1375.12 42.3716C1361.93 26.6365 1334.01 12.7526 1309.17 9.35877C1255.97 2.26256 1030.08 -1.95403 866.294 1.13128ZM822.216 92.5592V113.128H791.438H760.659V232.941V352.754H732.08H703.5V232.941V113.128H674.92H646.341V92.5592V71.9905H734.278H822.216V92.5592ZM1053.05 115.699C1053.05 139.764 1053.27 159.408 1053.6 159.408C1053.82 159.408 1057.45 157.351 1061.52 154.882C1090.21 137.605 1113.95 135.034 1131.43 147.478C1137.58 151.797 1144.84 162.082 1147.58 170.515C1150.88 180.182 1151.87 204.556 1151.98 269.964V323.546L1146.82 331.979C1137.47 346.994 1129.34 352.754 1114.06 354.708C1095.81 357.176 1075.7 351.314 1059.65 338.87L1053.6 334.242L1053.27 343.498L1052.94 352.754H1027.22H1001.39V212.372V71.9905H1027.22H1053.05V115.699ZM1283.34 142.644C1296.09 145.112 1310.71 152.414 1319.17 160.333C1326.65 167.327 1330.27 172.777 1332.8 180.902C1337.42 195.403 1340.06 221.731 1339.18 241.785L1338.52 253.715L1315.44 254.332C1302.68 254.744 1280.48 255.052 1266.08 255.052H1239.81L1240.14 280.969C1240.47 310.382 1240.69 310.896 1248.93 316.758C1253.44 319.844 1253.99 320.049 1261.9 319.638C1277.84 318.712 1280.92 314.907 1283.01 293.207L1284.33 279.735H1311.48H1338.63L1338.08 288.682C1337.2 304.623 1334.67 317.89 1331.48 323.752C1329.73 327.043 1325.22 332.185 1320.16 336.71C1303.78 351.314 1289.05 355.428 1256.96 354.502C1230.14 353.679 1221.45 350.594 1205.84 336.71C1196.06 327.865 1190.56 319.844 1188.59 311.205C1187.82 307.811 1186.61 292.282 1185.84 276.855C1184.3 245.282 1185.84 198.488 1188.7 185.838C1196.28 153.237 1238.93 133.8 1283.34 142.644ZM866.184 184.296C866.184 223.788 867.833 287.037 869.262 308.531L870.032 319.329L876.407 319.638C883.882 320.049 887.509 318.301 899.491 309.148L906.856 303.389V223.685V143.981H933.786H960.717V248.367V352.754H933.896H907.185L906.526 343.909C906.306 339.075 905.756 334.859 905.317 334.55C904.987 334.242 899.93 337.224 893.995 341.235C875.528 353.576 869.482 355.325 849.586 354.605C835.516 354.091 828.811 352.034 822.436 346.274C817.929 342.161 816.06 336.196 814.521 320.872C813.532 311.616 812.323 243.945 811.223 146.758V143.981H838.704H866.184V184.296Z" fill="#CED4DA"/>
<path d="M1089.88 181.725C1088.67 182.033 1084.05 183.679 1079.65 185.324L1071.52 188.512L1071.96 249.807C1072.29 303.903 1072.51 311.513 1074.16 314.907C1077.67 322.106 1090.97 326.631 1101.42 323.957C1109.99 321.798 1112.19 318.712 1114.72 304.52C1116.81 292.899 1117.8 258.857 1116.7 232.427C1115.49 202.396 1114.28 190.981 1111.75 187.484C1108.45 182.65 1097.9 179.873 1089.88 181.725Z" fill="#CED4DA"/>
<path d="M1264.65 176.891C1258.28 177.919 1253.88 181.725 1252.12 187.895C1251.46 190.055 1250.91 198.9 1250.91 207.436V223.171H1272.46H1294L1293.56 205.893C1293.12 186.661 1291.69 182.033 1285.54 178.845C1281.36 176.685 1271.8 175.76 1264.65 176.891Z" fill="#CED4DA"/>
<path d="M6.04563 60.3692C3.62735 60.5749 1.20907 61.192 0.76938 61.6033C0.329692 62.0147 5.71586 76.0015 12.7509 92.6621C26.4911 125.161 48.5854 178.845 60.0173 207.333L67.0523 224.919V283.128V341.441H93.7633H120.584L121.244 307.297C121.683 288.579 122.013 261.84 122.013 248.059V222.862L137.512 186.25C167.191 116.316 187.966 65.2029 187.966 62.2204C187.966 60.8834 184.559 60.6778 161.035 60.6778C136.633 60.6778 134.105 60.8834 133.225 62.4261C132.676 63.4545 124.431 86.6972 114.868 114.156C105.415 141.616 96.951 165.167 96.1816 166.504C94.8625 168.972 94.7526 168.869 92.4442 162.904C87.4977 150.563 77.3849 123.104 66.5027 92.0451L55.2906 60.1635L32.8666 60.0607C20.5553 60.0607 8.46391 60.1635 6.04563 60.3692Z" fill="#CED4DA"/>
<path d="M246.335 133.697C219.184 139.045 200.607 154.78 196.211 176.068C190.714 203.528 190.055 277.883 195.221 298.247C201.157 322.003 221.053 339.59 247.324 344.115C261.614 346.686 282.499 345.657 294.041 342.058C315.696 335.167 330.645 321.901 336.361 304.623C339.549 294.956 341.197 264.102 340.318 229.65C339.549 197.974 338.23 182.033 335.701 173.806C329.876 154.574 314.267 140.793 291.843 135.137C284.148 133.183 253.919 132.257 246.335 133.697ZM280.301 169.589C287.995 174.731 288.545 179.874 288.545 244.974C288.545 300.406 288.545 301.229 286.237 304.109C282.829 308.428 272.496 312.85 266.011 312.85C259.855 312.747 257.877 311.925 249.633 306.165L243.807 301.949L244.356 241.683C244.686 201.471 245.236 180.285 246.115 177.817C247.764 172.777 252.6 168.766 258.426 167.635C265.351 166.298 277.003 167.327 280.301 169.589Z" fill="#CED4DA"/>
<path d="M392.091 196.637C392.531 264.411 393.96 316.141 395.719 326.014C396.378 329.717 398.027 334.756 399.346 337.327C401.545 341.235 403.083 342.572 410.228 345.966C417.813 349.565 419.352 349.977 427.266 349.977C443.095 349.977 459.473 343.498 479.479 329.408C482.887 326.94 485.965 324.986 486.294 324.986C486.624 324.986 486.954 330.334 486.954 336.813V348.64L512.566 348.434L538.068 348.126L538.397 242.402L538.617 136.782H512.786H486.954V217.823V298.966L478.49 305.343C467.937 313.364 460.353 317.067 454.307 317.17C448.481 317.273 446.283 315.319 444.964 308.839C444.414 306.165 443.755 266.262 443.315 220.291L442.655 136.782H417.153H391.652L392.091 196.637Z" fill="#CED4DA"/>
</g>
<defs>
<clipPath id="clip0_7_26">
<rect width="1407" height="434" fill="white"/>
</clipPath>
</defs>
</svg>
