<?xml version="1.0" encoding="utf-8"?>
<!-- Generator: Adobe Illustrator 25.2.1, SVG Export Plug-In . SVG Version: 6.00 Build 0)  -->
<svg width="1585" height="429" viewBox="0 0 1585 429" fill="none" xmlns="http://www.w3.org/2000/svg">
<g clip-path="url(#clip0_7_4)">
<path d="M299.803 72.2035C285.232 57.9711 275.518 38.9233 271.888 18.0028C271.408 15.2205 271.034 12.3848 270.767 9.60249V0.13208H197.111V293.18C197.004 327.316 169.303 354.978 135.197 354.978C125.162 354.978 115.715 352.571 107.336 348.344C97.09 343.178 88.4793 335.259 82.4658 325.47C76.4522 315.681 73.2728 304.409 73.2828 292.912C73.2828 258.669 100.984 230.846 135.197 230.846C141.762 230.846 148.06 231.863 153.985 233.736V158.721C147.847 157.865 141.602 157.437 135.41 157.437C60.5797 157.598 0 218.326 0 293.18C0 340.157 23.8049 381.517 59.9926 405.862C82.2691 420.874 108.514 428.868 135.357 428.815C210.134 428.815 270.714 368.087 270.714 293.18V143.419C300.478 164.763 336.169 176.215 372.765 176.164V102.808C361.503 102.808 350.348 100.989 339.78 97.4044C332.361 94.8897 318.324 90.3953 299.749 72.2035H299.803Z" fill="#CED4DA"/>
<path fill-rule="evenodd" clip-rule="evenodd" d="M470.76 123.354V174.933H531.02V371.404H591.279V176.325H640.33L657.143 123.354H470.76ZM964.098 123.354V174.933H1024.36V371.404H1084.62V176.325H1133.67L1150.48 123.354H964.098ZM668.405 152.622C668.405 136.463 681.535 123.354 697.814 123.354C714.093 123.354 727.277 136.463 727.277 152.622C727.277 168.78 714.093 181.889 697.814 181.889C681.535 181.889 668.405 168.78 668.405 152.622ZM668.405 202.81H727.223V371.404H668.405V202.81ZM752.469 123.354V371.404H811.341V307.305L829.542 290.558L886.972 372.795H950.061L867.384 252.944L941.681 180.444H870.213L811.341 238.979V123.301H752.469V123.354ZM1387.36 123.354V371.404H1446.23V307.305L1464.43 290.558L1521.91 372.795H1585L1502.32 252.944L1576.62 180.444H1505.15L1446.28 238.979V123.301H1387.41L1387.36 123.354ZM1249.97 372.795C1306.49 372.795 1352.29 327.263 1352.29 271.082C1352.29 214.902 1306.49 169.369 1249.97 169.369H1248.58C1192.06 169.369 1146.26 214.902 1146.26 271.082C1146.26 327.263 1192.06 372.795 1248.58 372.795H1249.97ZM1199.53 271.082C1199.53 243.741 1221.84 221.643 1249.28 221.643C1276.71 221.643 1299.02 243.795 1299.02 271.082C1299.02 298.37 1276.71 320.574 1249.28 320.574C1221.79 320.574 1199.53 298.423 1199.53 271.082Z" fill="#CED4DA"/>
</g>
<defs>
<clipPath id="clip0_7_4">
<rect width="1585" height="429" fill="white"/>
</clipPath>
</defs>
</svg>

